<svg width="13" height="13" viewBox="0 0 13 13" fill="none" xmlns="http://www.w3.org/2000/svg">
<g filter="url(#filter0_if_18_512)">
<path d="M6.28068 1.30005V6.30937M9.83623 3.60434C10.5344 4.23406 11.0101 5.03609 11.2033 5.90927C11.3966 6.78245 11.2988 7.68768 10.9223 8.5108C10.5457 9.33393 9.90727 10.0381 9.08747 10.5345C8.26766 11.0309 7.3032 11.2972 6.31571 11.3C5.32822 11.3028 4.36193 11.0419 3.53869 10.5501C2.71545 10.0584 2.07214 9.35786 1.68987 8.53688C1.30761 7.7159 1.20352 6.81124 1.39072 5.93698C1.57793 5.06273 2.04804 4.25803 2.74179 3.62437" stroke="white" stroke-width="2" stroke-linecap="round" stroke-linejoin="round"/>
</g>
<defs>
<filter id="filter0_if_18_512" x="4.88162e-05" y="-1.69995" width="12.6" height="14.3" filterUnits="userSpaceOnUse" color-interpolation-filters="sRGB">
<feFlood flood-opacity="0" result="BackgroundImageFix"/>
<feBlend mode="normal" in="SourceGraphic" in2="BackgroundImageFix" result="shape"/>
<feColorMatrix in="SourceAlpha" type="matrix" values="0 0 0 0 0 0 0 0 0 0 0 0 0 0 0 0 0 0 127 0" result="hardAlpha"/>
<feOffset dy="-2"/>
<feGaussianBlur stdDeviation="1"/>
<feComposite in2="hardAlpha" operator="arithmetic" k2="-1" k3="1"/>
<feColorMatrix type="matrix" values="0 0 0 0 0 0 0 0 0 0 0 0 0 0 0 0 0 0 0.46 0"/>
<feBlend mode="normal" in2="shape" result="effect1_innerShadow_18_512"/>
<feGaussianBlur stdDeviation="0.15" result="effect2_foregroundBlur_18_512"/>
</filter>
</defs>
</svg>
