<svg width="13" height="13" viewBox="0 0 13 13" fill="none" xmlns="http://www.w3.org/2000/svg">
<path d="M12 3.5C12 3.22386 11.7761 3 11.5 3H4.5C4.22386 3 4 3.22386 4 3.5V11.5C4 11.7761 4.22386 12 4.5 12H11.5C11.7761 12 12 11.7761 12 11.5V3.5ZM13 11.5C13 12.3284 12.3284 13 11.5 13H4.5C3.67157 13 3 12.3284 3 11.5V3.5C3 2.67157 3.67157 2 4.5 2H11.5C12.3284 2 13 2.67157 13 3.5V11.5Z" fill="white"/>
<path d="M8 0C8.82843 0 9.5 0.671573 9.5 1.5C9.5 1.22386 9.05229 1 8.5 1H1.5C1.22386 1 1 1.22386 1 1.5V9.5C1 10.0523 1.22386 10.5 1.5 10.5C0.671573 10.5 0 9.82843 0 9V1.5C0 0.671573 0.671573 0 1.5 0H8Z" fill="white"/>
</svg>
